<svg xmlns="http://www.w3.org/2000/svg" viewBox="0 0 900 520" role="img" aria-labelledby="title desc">
  <title id="title">Sunrise Beach</title>
  <desc id="desc">A bright beach sunrise with water, sand, and soft clouds.</desc>
  <defs>
    <linearGradient id="sky" x1="0" x2="0" y1="0" y2="1">
      <stop offset="0" stop-color="#7fcfff"/>
      <stop offset="0.55" stop-color="#ffd07d"/>
      <stop offset="1" stop-color="#ff8a70"/>
    </linearGradient>
    <linearGradient id="sea" x1="0" x2="1" y1="0" y2="1">
      <stop offset="0" stop-color="#1fb9c7"/>
      <stop offset="1" stop-color="#2469c9"/>
    </linearGradient>
  </defs>
  <rect width="900" height="520" fill="url(#sky)"/>
  <circle cx="456" cy="206" r="72" fill="#fff2a7"/>
  <path d="M0 250 C110 226 180 270 290 246 C410 220 500 276 625 244 C745 212 810 248 900 232 L900 520 L0 520 Z" fill="url(#sea)"/>
  <path d="M0 337 C130 310 250 356 390 330 C545 301 676 349 900 316 L900 520 L0 520 Z" fill="#f6d58a"/>
  <path d="M0 293 C150 271 245 316 380 291 C520 266 665 312 900 278" fill="none" stroke="#e9ffff" stroke-width="10" stroke-linecap="round" opacity=".75"/>
  <path d="M68 116 C125 76 183 98 218 134 C159 122 116 122 68 116Z" fill="#fff7df" opacity=".7"/>
  <path d="M610 92 C681 52 756 74 800 120 C725 106 668 108 610 92Z" fill="#fff7df" opacity=".64"/>
  <path d="M690 368 C725 336 776 334 814 371 C764 365 729 365 690 368Z" fill="#fff8df" opacity=".35"/>
</svg>
