<svg xmlns="http://www.w3.org/2000/svg" viewBox="0 0 900 520" role="img" aria-labelledby="title desc">
  <title id="title">Mint Mountain</title>
  <desc id="desc">Green mountains under a clear morning sky.</desc>
  <defs>
    <linearGradient id="sky" x1="0" x2="0" y1="0" y2="1">
      <stop offset="0" stop-color="#a8e8ff"/>
      <stop offset="1" stop-color="#e9fff3"/>
    </linearGradient>
    <linearGradient id="mountain" x1="0" x2="1" y1="0" y2="1">
      <stop offset="0" stop-color="#1f9e96"/>
      <stop offset="1" stop-color="#75d66d"/>
    </linearGradient>
  </defs>
  <rect width="900" height="520" fill="url(#sky)"/>
  <circle cx="716" cy="116" r="58" fill="#fff2a7"/>
  <path d="M-30 386 L198 158 L365 386 Z" fill="#48b890"/>
  <path d="M128 398 L425 91 L752 398 Z" fill="url(#mountain)"/>
  <path d="M515 390 L735 191 L930 390 Z" fill="#2f8c83"/>
  <path d="M425 91 L360 206 L430 183 L484 237 Z" fill="#f5fff8" opacity=".88"/>
  <path d="M198 158 L152 245 L205 225 L242 267 Z" fill="#f5fff8" opacity=".7"/>
  <path d="M0 376 C143 336 226 417 374 374 C529 329 676 409 900 352 L900 520 L0 520 Z" fill="#7bd977"/>
  <path d="M0 432 C148 398 295 452 453 423 C626 392 744 441 900 408 L900 520 L0 520 Z" fill="#3aae84"/>
  <path d="M96 114 C161 80 227 98 270 130 C198 124 154 124 96 114Z" fill="#fff" opacity=".65"/>
</svg>
