<svg xmlns="http://www.w3.org/2000/svg" viewBox="0 0 1200 520" role="img" aria-labelledby="title desc">
  <title id="title">StarDance OS project banner</title>
  <desc id="desc">A handmade desktop operating system banner with app windows and a dock.</desc>
  <rect width="1200" height="520" fill="#101820"/>
  <path d="M0 350c142-45 254-50 390-10 144 43 267 31 415-16 148-48 265-42 395 8v188H0z" fill="#16a085"/>
  <path d="M0 394c142-36 261-40 392-8 147 36 254 31 407-10 148-39 274-35 401 10v134H0z" fill="#0f735f"/>
  <circle cx="1010" cy="104" r="54" fill="#ffd166"/>
  <g fill="#f8efdc" opacity=".45">
    <path d="M105 91h72v12h-72z"/>
    <path d="M928 188h110v12H928z"/>
    <path d="M802 74h60v12h-60z"/>
  </g>
  <rect x="76" y="72" width="1048" height="58" rx="10" fill="#f8efdc"/>
  <rect x="103" y="91" width="160" height="18" rx="9" fill="#101820"/>
  <rect x="930" y="88" width="112" height="26" rx="13" fill="#ff6f59"/>
  <rect x="1060" y="88" width="46" height="26" rx="13" fill="#101820"/>
  <rect x="110" y="168" width="300" height="214" rx="14" fill="#f8efdc" stroke="#101820" stroke-width="8"/>
  <rect x="110" y="168" width="300" height="42" rx="14" fill="#ff6f59"/>
  <path d="M150 244h210M150 285h180M150 326h220" stroke="#101820" stroke-width="13" stroke-linecap="round"/>
  <rect x="456" y="144" width="340" height="260" rx="14" fill="#f8efdc" stroke="#101820" stroke-width="8"/>
  <rect x="456" y="144" width="340" height="42" rx="14" fill="#2d7dd2"/>
  <rect x="492" y="214" width="268" height="118" rx="12" fill="#ffd166"/>
  <path d="M505 318l80-78 55 53 33-38 83 63z" fill="#16a085"/>
  <circle cx="710" cy="246" r="22" fill="#ff6f59"/>
  <rect x="838" y="212" width="244" height="210" rx="14" fill="#f8efdc" stroke="#101820" stroke-width="8"/>
  <rect x="838" y="212" width="244" height="42" rx="14" fill="#ffd166"/>
  <rect x="878" y="278" width="164" height="38" rx="8" fill="#101820"/>
  <g fill="#2d7dd2">
    <rect x="878" y="334" width="34" height="34" rx="8"/>
    <rect x="930" y="334" width="34" height="34" rx="8"/>
    <rect x="982" y="334" width="34" height="34" rx="8"/>
  </g>
  <rect x="428" y="432" width="344" height="58" rx="18" fill="#f8efdc" stroke="#101820" stroke-width="8"/>
  <rect x="466" y="444" width="36" height="36" rx="9" fill="#ff6f59"/>
  <rect x="536" y="444" width="36" height="36" rx="9" fill="#16a085"/>
  <rect x="606" y="444" width="36" height="36" rx="9" fill="#2d7dd2"/>
  <rect x="676" y="444" width="36" height="36" rx="9" fill="#ffd166"/>
  <text x="78" y="470" fill="#f8efdc" font-family="Arial, sans-serif" font-size="48" font-weight="800">StarDance OS</text>
</svg>
